Coordinates
version=1
nRows=24
nColumns=24
inDegrees=yes

Units are S.I. units (second, meters, Newtons, ...)
Angles are in degrees.

endheader
time	pelvis_tilt	pelvis_list	pelvis_rotation	pelvis_tx	pelvis_ty	pelvis_tz	hip_flexion_r	hip_adduction_r	hip_rotation_r	knee_angle_r	ankle_angle_r	subtalar_angle_r	mtp_angle_r	hip_flexion_l	hip_adduction_l	hip_rotation_l	knee_angle_l	ankle_angle_l	subtalar_angle_l	mtp_angle_l	lumbar_extension	lumbar_bending	lumbar_rotation
      2.25000000	      9.60819456	     -2.09446553	      2.93186643	      0.55244490	      1.01430015	      0.05529661	      1.02259158	      0.26953291	    -21.04376852	    -18.78712221	     -0.48905447	     12.07680268	      2.31654730	      0.68760896	     -7.07948121	    -11.64415219	    -54.48570547	     -6.35840385	    -17.24464981	     13.78175743	    -17.81726853	     14.53693855	     41.02022172
      2.25500000	      9.62364451	     -2.08454741	      2.63352946	      0.55841554	      1.01524258	      0.05580759	      0.47917706	      0.32666899	    -20.80526333	    -18.45818856	     -0.34129399	     12.29928703	      2.16654644	      1.23007562	     -6.96461406	    -11.85453296	    -53.96011901	     -5.82023211	    -17.22401808	     13.83571922	    -17.90730893	     14.45600495	     41.30494942
      2.26000000	      9.63669990	     -2.07883704	      2.33504551	      0.56437521	      1.01611554	      0.05631861	     -0.05723587	      0.38318181	    -20.56972110	    -18.13562266	     -0.18837698	     12.51231869	      2.00940910	      1.76384847	     -6.85615307	    -12.06748296	    -53.37627601	     -5.32086497	    -17.21208656	     13.88440921	    -17.99343351	     14.37279800	     41.58060489
      2.26500000	      9.62727672	     -2.10304679	      2.04594354	      0.57031578	      1.01690850	      0.05684599	     -0.56464915	      0.47279729	    -20.30174275	    -17.83212669	      0.22076346	     12.71453269	      0.01926482	      2.31738270	     -6.79013532	    -12.28078650	    -52.74841727	     -4.82792182	    -17.14338388	     13.85055142	    -18.05310181	     14.31816909	     41.84071436
      2.27000000	      9.64630820	     -2.08697244	      1.74858929	      0.57626071	      1.01766995	      0.05731359	     -1.09580934	      0.49935115	    -20.09214150	    -17.53910745	      0.37806076	     12.95665858	      0.01730209	      2.81085044	     -6.66904325	    -12.50370422	    -52.03159653	     -4.42415416	    -17.19072199	     13.89918157	    -18.14793407	     14.22313443	     42.11644180
      2.27500000	      9.65795927	     -2.09200567	      1.44705972	      0.58219450	      1.01835387	      0.05780236	     -1.61910524	      0.54972700	    -19.83988651	    -17.23344820	      0.52495390	     13.14090463	     -0.00788030	      3.30089548	     -6.57658991	    -12.72694015	    -51.26847644	     -4.05706704	    -17.18553020	     13.95186702	    -18.23721815	     14.14497908	     42.39626770
      2.28000000	      9.66743943	     -2.10059431	      1.14436438	      0.58811389	      1.01897762	      0.05828124	     -2.13391636	      0.59764807	    -19.57855251	    -16.93804784	      0.67985299	     13.30952207	     -0.05590294	      3.77797588	     -6.49071513	    -12.95804049	    -50.45119708	     -3.73265771	    -17.18327807	     14.00447125	    -18.32462817	     14.07076363	     42.68391000
      2.28500000	      9.67466863	     -2.11659348	      0.83278523	      0.59404895	      1.01953423	      0.05877707	     -2.64289289	      0.64771548	    -19.32081848	    -16.65139519	      0.84053905	     13.47656445	     -0.10378040	      4.23709948	     -6.41953469	    -13.21324360	    -49.58035173	     -3.44494330	    -17.20118124	     14.05071439	    -18.40655828	     13.99640103	     42.96396018
      2.29000000	      9.68073360	     -2.13861053	      0.52481576	      0.59996531	      1.02001534	      0.05926244	     -3.14580440	      0.69884743	    -19.05164804	    -16.37321114	      1.01118310	     13.62905370	     -0.16038732	      4.68534920	     -6.35763184	    -13.46764748	    -48.66515979	     -3.20561307	    -17.22205487	     14.09276863	    -18.49239651	     13.92714591	     43.24507018
      2.29500000	      9.68860267	     -2.16537618	      0.21133579	      0.60587455	      1.02042615	      0.05974215	     -3.64507679	      0.74756218	    -18.77760369	    -16.10573869	      1.19219424	     13.77833658	     -0.22249016	      5.11482575	     -6.30437757	    -13.73573814	    -47.70459270	     -3.01121017	    -17.25394037	     14.12926611	    -18.58262051	     13.86309714	     43.53612429
      2.30000000	      9.68834139	     -2.20058537	     -0.10249520	      0.61178081	      1.02076495	      0.06022272	     -4.13217834	      0.80015955	    -18.49786581	    -15.84526890	      1.37660133	     13.91664202	     -0.28941684	      5.53746007	     -6.26434727	    -14.01004735	    -46.70053420	     -2.86173136	    -17.29285351	     14.15909113	    -18.66301204	     13.80287648	     43.81891997
      2.30500000	      9.69944971	     -2.24155022	     -0.41753144	      0.61768483	      1.02104130	      0.06069097	     -4.62782490	      0.85113724	    -18.21925538	    -15.59423374	      1.57386874	     14.05288646	     -0.36233560	      5.93091902	     -6.23477225	    -14.29944895	    -45.65553994	     -2.75418370	    -17.33748025	     14.18275477	    -18.75897865	     13.75096809	     44.11329971
      2.31000000	      9.69733358	     -2.29136285	     -0.73588621	      0.62358174	      1.02123763	      0.06116209	     -5.10303465	      0.90549132	    -17.93509114	    -15.35586549	      1.77424080	     14.18206095	     -0.44934053	      6.32350350	     -6.21902211	    -14.59898430	    -44.57315154	     -2.69012870	    -17.38739600	     14.20079130	    -18.84262068	     13.70593969	     44.41502449
      2.31500000	      9.70046435	     -2.34732225	     -1.04921688	      0.62945831	      1.02135940	      0.06162163	     -5.57920968	      0.96097741	    -17.64438298	    -15.12690943	      1.98711349	     14.29211768	     -0.59930969	      6.69863520	     -6.21108082	    -14.89322330	    -43.45815425	     -2.66392622	    -17.43816594	     14.22380148	    -18.93620374	     13.66788429	     44.72922300
      2.32000000	      9.69385713	     -2.42062814	     -1.36362962	      0.63537316	      1.02139264	      0.06207974	     -6.04402091	      1.02732422	    -17.37444466	    -14.90972399	      2.21609834	     14.43257530	     -0.68550758	      7.06797851	     -6.23552912	    -15.23415573	    -42.32130520	     -2.65709387	    -17.49491382	     14.22400946	    -19.00939323	     13.64496270	     44.99754989
      2.32500000	      9.69173129	     -2.50378118	     -1.66968876	      0.64126238	      1.02136071	      0.06251948	     -6.50981148	      1.09982461	    -17.10095405	    -14.69883457	      2.44129899	     14.55279836	     -0.77562295	      7.42200325	     -6.26941723	    -15.56430963	    -41.15563983	     -2.68683815	    -17.54129013	     14.21399279	    -19.09389843	     13.63464241	     45.27619695
      2.33000000	      9.68287929	     -2.59349569	     -1.97341510	      0.64715609	      1.02124608	      0.06295120	     -6.96366978	      1.17301555	    -16.83585381	    -14.50243570	      2.67650171	     14.67525265	     -0.86176446	      7.77056474	     -6.31559675	    -15.91312771	    -39.96637284	     -2.74624453	    -17.57864113	     14.19238130	    -19.17069548	     13.63095474	     45.55069373
      2.33500000	      9.67649445	     -2.69686979	     -2.27286131	      0.65305582	      1.02106375	      0.06337039	     -7.41868156	      1.25476491	    -16.57448650	    -14.31376733	      2.91661401	     14.79802011	     -0.94444332	      8.10325755	     -6.37980942	    -16.27283012	    -38.75580442	     -2.83260257	    -17.59997684	     14.15980064	    -19.25005154	     13.64155413	     45.81843194
      2.34000000	      9.66068968	     -2.80660413	     -2.56883544	      0.65894986	      1.02079816	      0.06378626	     -7.85785044	      1.33842854	    -16.31389068	    -14.13846856	      3.16439011	     14.92716226	     -1.02320941	      8.43586036	     -6.45536599	    -16.64537064	    -37.52982786	     -2.94702655	    -17.60304450	     14.11436968	    -19.32206917	     13.65905498	     46.08493145
      2.34500000	      9.64247989	     -2.92666972	     -2.85695492	      0.66486068	      1.02046042	      0.06416065	     -8.29373061	      1.42566514	    -16.07532529	    -13.97354571	      3.41874955	     15.06034694	     -1.09130844	      8.75906001	     -6.54256467	    -17.03315764	    -36.28581246	     -3.08035047	    -17.58353388	     14.05750616	    -19.39076415	     13.69598792	     46.35341365
      2.35000000	      9.62068294	     -3.05386608	     -3.14004031	      0.67077437	      1.02005383	      0.06453385	     -8.72155382	      1.51579729	    -15.83937172	    -13.81960373	      3.67712066	     15.19739561	     -1.15571110	      9.07614324	     -6.64054068	    -17.43407514	    -35.03014594	     -3.23708569	    -17.53521228	     13.98801963	    -19.45517954	     13.73546582	     46.60250669
      2.35500000	      9.59419508	     -3.19656549	     -3.41407744	      0.67668878	      1.01956789	      0.06488747	     -9.14181142	      1.61798036	    -15.61751692	    -13.67652294	      3.94087720	     15.34048958	     -1.21134870	      9.39161633	     -6.75789047	    -17.84565502	    -33.76892338	     -3.40546396	    -17.44909290	     13.90841777	    -19.51738684	     13.79408968	     46.84488847
      2.36000000	      9.56887094	     -3.33952131	     -3.68597426	      0.68261570	      1.01902221	      0.06521877	     -9.55992826	      1.71337514	    -15.40444306	    -13.54551147	      4.21083295	     15.49349491	     -1.25608240	      9.69285501	     -6.87554175	    -18.28063594	    -32.49354530	     -3.58914469	    -17.32822025	     13.81878036	    -19.58087628	     13.85566405	     47.08939698
      2.36500000	      9.53824729	     -3.49546934	     -3.94843223	      0.68855620	      1.01840288	      0.06553136	     -9.96995602	      1.81837764	    -15.19975480	    -13.42772531	      4.48523067	     15.65118178	     -1.29009835	      9.99251854	     -7.00860935	    -18.73079456	    -31.21534409	     -3.77950622	    -17.16252751	     13.72188592	    -19.63948261	     13.93392927	     47.33763644
